# xmcd
# 
# Track frame offsets:
#   150
#   18278
#   35200
#   53814
#   69404
#   86272
#   104613
#   122066
#   136489
#   154935
#   169697
#   192853
#   210789
#   228503
#   242983
#   262122
#   279023
# 
# Disc length: 3966 seconds
# 
# Revision: 3
# Processed by: cddbd v1.5.2PL0 Copyright (c) Steve Scherf et al.
# Submitted via: Synapstar 1.0 
# 
DISCID=e90f7c11
DTITLE=Various Artist - CB 5124-02
DYEAR=2009
DGENRE=Country
TTITLE0=Keith Urban - Sweet Thing
TTITLE1=Toby Keith - God Love Her
TTITLE2=Lee Ann Womack - Solitary Thinkin'
TTITLE3=Phil Vassar - Prayer Of A Common Man
TTITLE4=Rodney Atkins - It's America
TTITLE5=Taylor Swift - White Horse
TTITLE6=Randy Rogers Band - In My Arms Instead
TTITLE7=Alan Jackson - Sissy's Song
TTITLE8=Martina McBride - Ride
TTITLE9=Dierks Bentley - Sideways
TTITLE10=Wynonna - Sing
TTITLE11=Craig Morgan - God Must Really Love Me
TTITLE12=Jessica Simpson - Pray Out Loud
TTITLE13=Kenny Chesney F./ Mac McAnally - Down The Road
TTITLE14=Tim McGraw - Nothin' To Die For
TTITLE15=Caitlin and Will - Address In The Stars
TTITLE16=Rascal Flatts - Here
EXTD=
EXTT0=
EXTT1=
EXTT2=
EXTT3=
EXTT4=
EXTT5=
EXTT6=
EXTT7=
EXTT8=
EXTT9=
EXTT10=
EXTT11=
EXTT12=
EXTT13=
EXTT14=
EXTT15=
EXTT16=
PLAYORDER=
